<svg xmlns="http://www.w3.org/2000/svg" version="1.1" xmlns:xlink="http://www.w3.org/1999/xlink" xmlns:svgjs="http://svgjs.com/svgjs" width="375" height="812" preserveAspectRatio="none" viewBox="0 0 375 812"><g mask="url(&quot;#SvgjsMask1036&quot;)" fill="none"><path d="M295.2557581093749 178.20021642628333L361.2187424225282 204.8509920231503 387.8695180193952 138.88800770999703 321.9065337062419 112.23723211313005z" fill="rgba(115, 0, 251, 0.32)" class="triangle-float2"></path><path d="M124.74006935240274 272.2037356355755L70.1090615982364 339.536104873663 144.75356402486443 352.69794461303604z" fill="rgba(115, 0, 251, 0.32)" class="triangle-float2"></path><path d="M87.40677745426004 628.647943575629L123.71715498999296 550.7800876639349 45.84929907829885 514.469710128202 9.53892154256593 592.3375660398962z" fill="rgba(115, 0, 251, 0.32)" class="triangle-float3"></path><path d="M-17.614,76.898C-4.757,76.958,10.377,77.452,16.777,66.301C23.163,55.174,15.313,42.24,8.524,31.355C2.279,21.343,-5.823,11.631,-17.614,11.164C-30.093,10.67,-41.039,18.507,-47.599,29.134C-54.551,40.397,-58.487,54.771,-51.45,65.981C-44.697,76.739,-30.316,76.838,-17.614,76.898" fill="rgba(115, 0, 251, 0.32)" class="triangle-float3"></path><path d="M182.09 636.65 a85.39 85.39 0 1 0 170.78 0 a85.39 85.39 0 1 0 -170.78 0z" fill="rgba(115, 0, 251, 0.32)" class="triangle-float2"></path><path d="M201.92742446237503 384.38527122173866L100.98502197978787 402.1841402769519 118.78389103500113 503.12654275953906 219.7262935175883 485.32767370432583z" fill="rgba(115, 0, 251, 0.32)" class="triangle-float3"></path></g><defs><mask id="SvgjsMask1036"><rect width="375" height="812" fill="#ffffff"></rect></mask></defs></svg>